HIERARCHY
ROOT Hips
{
	OFFSET 0.00000 0.00000 0.00000
	CHANNELS 6 Xposition Yposition Zposition Zrotation Yrotation Xrotation 
	JOINT LHipJoint
	{
		OFFSET 0 0 0
		CHANNELS 3 Zrotation Yrotation Xrotation
		JOINT LeftHip
		{
			OFFSET 1.41496 -1.84582 0.78394
			CHANNELS 3 Zrotation Yrotation Xrotation
			JOINT LeftKnee
			{
				OFFSET 2.58040 -7.08960 0.00000
				CHANNELS 3 Zrotation Yrotation Xrotation
				JOINT LeftAnkle
				{
					OFFSET 2.64719 -7.27309 0.00000
					CHANNELS 3 Zrotation Yrotation Xrotation
					JOINT LeftToe
					{
						OFFSET 0.20718 -0.56921 2.20259
						CHANNELS 3 Zrotation Yrotation Xrotation
						End Site
						{
							OFFSET 0.00000 -0.00000 1.14243
						}
					}
				}
			}
		}
	}
	JOINT RHipJoint
	{
		OFFSET 0 0 0
		CHANNELS 3 Zrotation Yrotation Xrotation
		JOINT RightHip
		{
			OFFSET -1.40551 -1.84582 0.78394
			CHANNELS 3 Zrotation Yrotation Xrotation
			JOINT RightKnee
			{
				OFFSET -2.56572 -7.04926 0.00000
				CHANNELS 3 Zrotation Yrotation Xrotation
				JOINT RightAnkle
				{
					OFFSET -2.57974 -7.08778 0.00000
					CHANNELS 3 Zrotation Yrotation Xrotation
					JOINT RightToe
					{
						OFFSET -0.26704 -0.73369 2.20815
						CHANNELS 3 Zrotation Yrotation Xrotation
						End Site
						{
							OFFSET -0.00000 -0.00000 1.16246
						}
					}
				}
			}
		}
	}
	JOINT lowerback
	{
		OFFSET 0 0 0
		CHANNELS 3 Zrotation Yrotation Xrotation
		JOINT Chest
		{
			OFFSET -0.04690 2.05196 -0.07017
			CHANNELS 3 Zrotation Yrotation Xrotation
			JOINT Chest2
			{
				OFFSET 0.04085 2.05260 0.00800
				CHANNELS 3 Zrotation Yrotation Xrotation
				JOINT lowerneck
				{
					OFFSET 0 0 0
					CHANNELS 3 Zrotation Yrotation Xrotation
					JOINT Neck
					{
						OFFSET -0.03582 1.80995 0.19301
						CHANNELS 3 Zrotation Yrotation Xrotation
						JOINT Head
						{
							OFFSET 0.00952 1.80195 -0.36389
							CHANNELS 3 Zrotation Yrotation Xrotation
							End Site
							{
								OFFSET 0.00392 1.85062 -0.14494
							}
						}
					}
				}
				JOINT LeftCollar
				{
					OFFSET 0 0 0
					CHANNELS 3 Zrotation Yrotation Xrotation
					JOINT LeftShoulder
					{
						OFFSET 3.55224 1.39726 -0.13667
CHANNELS 3 Zrotation Xrotation Yrotation
						JOINT LeftElbow
						{
OFFSET 0 -5.145070 -0.000000
CHANNELS 3 Zrotation Xrotation Yrotation
							JOINT LeftWrist
							{
OFFSET 0 -3.506460 0.000000
CHANNELS 3 Zrotation Xrotation Yrotation
								JOINT lhand
								{
									OFFSET 0 0 0
CHANNELS 3 Zrotation Xrotation Yrotation
									JOINT LFingers
									{
OFFSET 0 -0.629970 0.000000
CHANNELS 3 Zrotation Xrotation Yrotation
										End Site
										{
OFFSET 0 -0.507900 0.000000
										}
									}
								}
								JOINT LThumb
								{
OFFSET 0 0.000000 0.000000
CHANNELS 3 Zrotation Xrotation Yrotation
									End Site
									{
OFFSET 0 -0.515650 0.515650
									}
								}
							}
						}
					}
				}
				JOINT RightCollar
				{
					OFFSET 0 0 0
					CHANNELS 3 Zrotation Yrotation Xrotation
					JOINT RightShoulder
					{
						OFFSET -3.06467 1.61290 -0.28813
CHANNELS 3 Zrotation Xrotation Yrotation
						JOINT RightElbow
						{
OFFSET 0 -5.232000 -0.000000
CHANNELS 3 Zrotation Xrotation Yrotation
							JOINT RightWrist
							{
OFFSET 0 -3.656410 0.000000
CHANNELS 3 Zrotation Xrotation Yrotation
								JOINT rhand
								{
									OFFSET 0 0 0
CHANNELS 3 Zrotation Xrotation Yrotation
									JOINT RFingers
									{
OFFSET 0 -0.656810 0.000000
CHANNELS 3 Zrotation Xrotation Yrotation
										End Site
										{
OFFSET 0 -0.529530 0.000000
										}
									}
								}
								JOINT RThumb
								{
OFFSET 0 0.000000 0.000000
CHANNELS 3 Zrotation Xrotation Yrotation
									End Site
									{
OFFSET 0 -0.537620 0.537620
									}
								}
							}
						}
					}
				}
			}
		}
	}
}
MOTION
Frames: 6
Frame Time: 0.008333333333333333
7.054016 14.555398 -4.012063 126.734043 -72.152817 -457.432222 0.000000 0.000000 0.000000 8.128190 -18.181723 -32.670215 10.311488 17.573678 60.514303 0.287087 -8.960894 17.023000 0.031825 -1.126381 -3.096918 0.000000 0.000000 0.000000 0.855128 0.443920 -79.786946 -20.248882 -19.998349 90.727698 -3.088129 0.482169 -33.202439 -1.750025 8.324773 -23.704973 2.372824 -4.674213 44.467165 -2.319241 -6.089611 7.509090 -0.811397 -3.125938 -12.750204 -12.615710 -10.622062 0.559313 16.308954 -13.677184 -23.895009 7.774295 -7.650318 -5.101497 0.000000 0.000000 0.000000 -0.334302 2.668436 -31.571910 119.007589 -56.568546 84.831892 42.943887 2.689503 16.433093 0.000000 0.000000 0.000000 -7.125000 0.000000 0.000000 9.772595 8.292351 8.387226 0.000000 0.000000 0.000000 -17.234111 -7.453850 9.211518 -44.152863 -50.332605 -21.588658 -30.597954 -7.478704 3.867666 0.000000 0.000000 0.000000 7.125000 0.000000 0.000000 -3.275584 34.456399 -0.848917
6.977160 14.596911 -4.145574 127.471604 -71.878030 -458.112361 0.000000 0.000000 0.000000 7.499310 -17.794547 -33.370485 10.703105 17.783698 61.809991 0.244954 -8.646856 16.153344 0.021063 -0.927794 -2.550240 0.000000 0.000000 0.000000 1.348421 0.666412 -79.353600 -20.172495 -19.999189 90.504310 -3.103057 0.593072 -33.252206 -1.738224 8.298150 -23.623366 2.273247 -4.592740 44.139624 -2.351778 -6.034505 7.374231 -0.830571 -3.096407 -12.810258 -12.577390 -10.612819 0.484147 16.377179 -13.651000 -24.088105 7.801186 -7.652212 -5.148781 0.000000 0.000000 0.000000 -0.197115 2.753448 -31.589484 119.088892 -56.547867 84.899753 42.981361 2.773656 16.439260 0.000000 0.000000 0.000000 -7.125000 0.000000 0.000000 9.794675 8.273911 8.410362 0.000000 0.000000 0.000000 -17.125703 -7.184136 9.212341 -45.226207 -50.871821 -22.416090 -30.829841 -7.524304 3.855222 0.000000 0.000000 0.000000 7.125000 0.000000 0.000000 -3.467159 34.451089 -0.899011
6.900034 14.639085 -4.279957 128.134341 -71.607150 -458.733601 0.000000 0.000000 0.000000 6.872683 -17.447578 -34.080941 11.094841 17.972863 63.079085 0.211957 -8.236327 15.230740 0.014839 -0.756823 -2.080101 0.000000 0.000000 0.000000 1.834201 0.862519 -78.875600 -20.086192 -19.999548 90.251984 -3.111795 0.749319 -33.255877 -1.726573 8.271617 -23.542209 2.170545 -4.513100 43.822540 -2.389364 -5.982675 7.241086 -0.851519 -3.068078 -12.869230 -12.542916 -10.605198 0.405345 16.443931 -13.627100 -24.259474 7.826243 -7.654287 -5.188401 0.000000 0.000000 0.000000 -0.060259 2.844379 -31.537973 119.075087 -56.551378 84.888222 43.005101 2.806693 16.375500 0.000000 0.000000 0.000000 -7.125000 0.000000 0.000000 9.822525 8.348084 8.420337 0.000000 0.000000 0.000000 -16.981505 -6.893027 9.236002 -46.398145 -51.415935 -23.332349 -31.073868 -7.597640 3.867871 0.000000 0.000000 0.000000 7.125000 0.000000 0.000000 -3.669132 34.475348 -0.949284
6.822908 14.681259 -4.414339 128.797077 -71.336270 -459.354841 0.000000 0.000000 0.000000 6.246056 -17.100609 -34.791397 11.486578 18.162028 64.348179 0.178960 -7.825797 14.308137 0.008615 -0.585852 -1.609961 0.000000 0.000000 0.000000 2.319982 1.058627 -78.397600 -19.999888 -19.999907 89.999657 -3.120533 0.905567 -33.259548 -1.714922 8.245083 -23.461053 2.067842 -4.433460 43.505456 -2.426950 -5.930845 7.107940 -0.872466 -3.039749 -12.928202 -12.508443 -10.597577 0.326542 16.510683 -13.603200 -24.430844 7.851300 -7.656362 -5.228022 0.000000 0.000000 0.000000 0.076597 2.935311 -31.486463 119.061281 -56.554889 84.876691 43.028841 2.839730 16.311740 0.000000 0.000000 0.000000 -7.125000 0.000000 0.000000 9.850375 8.422258 8.430312 0.000000 0.000000 0.000000 -16.837307 -6.601918 9.259662 -47.570083 -51.960049 -24.248609 -31.317896 -7.670976 3.880519 0.000000 0.000000 0.000000 7.125000 0.000000 0.000000 -3.871105 34.499607 -0.999558
6.745397 14.723434 -4.549490 129.392736 -71.077860 -459.916097 0.000000 0.000000 0.000000 5.635504 -16.799914 -35.521918 11.874325 18.330774 65.583025 0.150277 -7.388496 13.347680 0.005286 -0.448331 -1.231985 0.000000 0.000000 0.000000 2.805319 1.226811 -77.887775 -19.904041 -19.999468 89.719436 -3.123273 1.097540 -33.222352 -1.704779 8.221889 -23.390180 1.967622 -4.356302 43.186481 -2.465954 -5.879872 6.975681 -0.895866 -3.011745 -12.983480 -12.482686 -10.592468 0.246233 16.580154 -13.582373 -24.581382 7.876652 -7.658909 -5.259575 0.000000 0.000000 0.000000 0.215995 3.045332 -31.377597 118.952889 -56.582394 84.786205 43.025190 2.811748 16.180460 0.000000 0.000000 0.000000 -7.125000 0.000000 0.000000 9.874886 8.590133 8.418362 0.000000 0.000000 0.000000 -16.657827 -6.291483 9.301732 -48.844645 -52.500410 -25.259279 -31.542805 -7.779830 3.902859 0.000000 0.000000 0.000000 7.125000 0.000000 0.000000 -4.057683 34.534622 -1.044336
6.667752 14.765608 -4.684910 129.964900 -70.823818 -460.456341 0.000000 0.000000 0.000000 5.030582 -16.515428 -36.259466 12.260675 18.492369 66.805875 0.123105 -6.941818 12.373965 0.002972 -0.322527 -0.886293 0.000000 0.000000 0.000000 3.290501 1.385213 -77.366803 -19.804850 -19.998750 89.429444 -3.123911 1.302027 -33.170841 -1.695163 8.199864 -23.322909 1.868272 -4.280013 42.866843 -2.505455 -5.829200 6.843732 -0.920125 -2.983855 -13.037465 -12.459983 -10.588238 0.165396 16.650578 -13.562623 -24.724622 7.902109 -7.661623 -5.288303 0.000000 0.000000 0.000000 0.356283 3.162039 -31.248641 118.811364 -56.618304 84.668061 43.011943 2.762391 16.025529 0.000000 0.000000 0.000000 -7.125000 0.000000 0.000000 9.898228 8.790829 8.398731 0.000000 0.000000 0.000000 -16.465989 -5.974280 9.350250 -50.155155 -53.039457 -26.303019 -31.761017 -7.901125 3.928595 0.000000 0.000000 0.000000 7.125000 0.000000 0.000000 -4.238868 34.573405 -1.087188
